Oprah.Winfrey.2011.02.28.Ultimate.After.Oscar.Party.720p.x264-Nile

RELEASE INFORMATION

General
Format                           : Matroska
File size                        : 1.09 GiB
Duration                         : 43mn 11s
Overall bit rate                 : 3 614 Kbps
Encoded date                     : UTC 2011-03-01 03:13:37
Writing library                  : libebml v1.2.0 + libmatroska v1.1.0

Video
ID                               : 2
Format                           : AVC
Format/Info                      : Advanced Video Codec
Format profile                   : Baseline@L3.1
Format settings, CABAC           : No
Format settings, ReFrames        : 1 frame
Muxing mode                      : Container profile=Unknown@3.1
Codec ID                         : V_MPEG4/ISO/AVC
Duration                         : 43mn 8s
Bit rate                         : 3 286 Kbps
Width                            : 1 280 pixels
Height                           : 720 pixels
Display aspect ratio             : 16:9
Frame rate                       : 29.970 fps
Standard                         : NTSC
Resolution                       : 24 bits
Colorimetry                      : 4:2:0
Scan type                        : Progressive
Bits/(Pixel*Frame)               : 0.119
Stream size                      : 1 014 MiB (91%)

Audio
ID                               : 1
Format                           : MPEG Audio
Format version                   : Version 1
Format profile                   : Layer 3
Codec ID                         : A_MPEG/L3
Codec ID/Hint                    : MP3
Duration                         : 43mn 11s
Bit rate mode                    : Constant
Bit rate                         : 256 Kbps
Channel(s)                       : 2 channels
Sampling rate                    : 44.1 KHz
Resolution                       : 16 bits
Stream size                      : 79.1 MiB (7%)
 
http://www.oprah.com/showinfo/From-the-Kodak-Theatre-Oprahs-Ultimate-After-Oscar-Party